<svg width="454" height="121" viewBox="0 0 454 121" fill="none" xmlns="http://www.w3.org/2000/svg">
<path d="M63.1374 24.2727H78.5138V71.5028C78.5138 76.8059 77.2473 81.446 74.7141 85.4233C72.2047 89.4006 68.689 92.5019 64.1673 94.7273C59.6455 96.929 54.378 98.0298 48.3647 98.0298C42.3278 98.0298 37.0484 96.929 32.5266 94.7273C28.0049 92.5019 24.4892 89.4006 21.9798 85.4233C19.4703 81.446 18.2156 76.8059 18.2156 71.5028V24.2727H33.592V70.1889C33.592 72.9588 34.1957 75.4209 35.4031 77.5753C36.6341 79.7296 38.3623 81.4223 40.5877 82.6534C42.8131 83.8845 45.4054 84.5 48.3647 84.5C51.3477 84.5 53.94 83.8845 56.1417 82.6534C58.3671 81.4223 60.0835 79.7296 61.2908 77.5753C62.5219 75.4209 63.1374 72.9588 63.1374 70.1889V24.2727ZM95.5938 97L86.0938 62.0909H95.8892L101.298 85.5455H101.616L107.253 62.0909H116.866L122.594 85.4091H122.889L128.207 62.0909H137.98L128.503 97H118.253L112.253 75.0455H111.821L105.821 97H95.5938ZM190.524 24.2727H205.901V71.5028C205.901 76.8059 204.634 81.446 202.101 85.4233C199.591 89.4006 196.076 92.5019 191.554 94.7273C187.032 96.929 181.765 98.0298 175.751 98.0298C169.714 98.0298 164.435 96.929 159.913 94.7273C155.392 92.5019 151.876 89.4006 149.366 85.4233C146.857 81.446 145.602 76.8059 145.602 71.5028V24.2727H160.979V70.1889C160.979 72.9588 161.582 75.4209 162.79 77.5753C164.021 79.7296 165.749 81.4223 167.974 82.6534C170.2 83.8845 172.792 84.5 175.751 84.5C178.734 84.5 181.327 83.8845 183.528 82.6534C185.754 81.4223 187.47 79.7296 188.678 77.5753C189.909 75.4209 190.524 72.9588 190.524 70.1889V24.2727ZM216.094 97V62.0909H225.321V68.25H225.73C226.458 66.2045 227.67 64.5909 229.367 63.4091C231.064 62.2273 233.094 61.6364 235.458 61.6364C237.852 61.6364 239.89 62.2348 241.571 63.4318C243.253 64.6136 244.374 66.2197 244.935 68.25H245.299C246.011 66.25 247.299 64.6515 249.162 63.4545C251.041 62.2424 253.261 61.6364 255.821 61.6364C259.079 61.6364 261.723 62.6742 263.753 64.75C265.799 66.8106 266.821 69.7348 266.821 73.5227V97H257.162V75.4318C257.162 73.4924 256.647 72.0379 255.617 71.0682C254.587 70.0985 253.299 69.6136 251.753 69.6136C249.996 69.6136 248.624 70.1742 247.64 71.2955C246.655 72.4015 246.162 73.8636 246.162 75.6818V97H236.776V75.2273C236.776 73.5152 236.284 72.1515 235.299 71.1364C234.329 70.1212 233.049 69.6136 231.458 69.6136C230.382 69.6136 229.412 69.8864 228.549 70.4318C227.7 70.9621 227.026 71.7121 226.526 72.6818C226.026 73.6364 225.776 74.7576 225.776 76.0455V97H216.094ZM290.378 97.6818C286.787 97.6818 283.696 96.9545 281.105 95.5C278.53 94.0303 276.545 91.9545 275.151 89.2727C273.757 86.5758 273.06 83.3864 273.06 79.7045C273.06 76.1136 273.757 72.9621 275.151 70.25C276.545 67.5379 278.507 65.4242 281.037 63.9091C283.583 62.3939 286.568 61.6364 289.992 61.6364C292.295 61.6364 294.439 62.0076 296.424 62.75C298.424 63.4773 300.166 64.5758 301.651 66.0455C303.151 67.5152 304.318 69.3636 305.151 71.5909C305.984 73.803 306.401 76.3939 306.401 79.3636V82.0227H276.924V76.0227H297.287C297.287 74.6288 296.984 73.3939 296.378 72.3182C295.772 71.2424 294.931 70.4015 293.855 69.7955C292.795 69.1742 291.56 68.8636 290.151 68.8636C288.681 68.8636 287.378 69.2045 286.242 69.8864C285.121 70.553 284.242 71.4545 283.605 72.5909C282.969 73.7121 282.643 74.9621 282.628 76.3409V82.0455C282.628 83.7727 282.946 85.2652 283.583 86.5227C284.234 87.7803 285.151 88.75 286.333 89.4318C287.515 90.1136 288.916 90.4545 290.537 90.4545C291.613 90.4545 292.598 90.303 293.492 90C294.386 89.697 295.151 89.2424 295.787 88.6364C296.424 88.0303 296.908 87.2879 297.242 86.4091L306.196 87C305.742 89.1515 304.81 91.0303 303.401 92.6364C302.007 94.2273 300.204 95.4697 297.992 96.3636C295.795 97.2424 293.257 97.6818 290.378 97.6818ZM325.583 97.5682C322.931 97.5682 320.53 96.8864 318.378 95.5227C316.242 94.1439 314.545 92.1212 313.287 89.4545C312.045 86.7727 311.424 83.4848 311.424 79.5909C311.424 75.5909 312.068 72.2652 313.355 69.6136C314.643 66.947 316.355 64.9545 318.492 63.6364C320.643 62.303 322.999 61.6364 325.56 61.6364C327.515 61.6364 329.143 61.9697 330.446 62.6364C331.765 63.2879 332.825 64.1061 333.628 65.0909C334.446 66.0606 335.068 67.0152 335.492 67.9545H335.787V50.4545H345.446V97H335.901V91.4091H335.492C335.037 92.3788 334.393 93.3409 333.56 94.2955C332.742 95.2348 331.674 96.0152 330.355 96.6364C329.052 97.2576 327.462 97.5682 325.583 97.5682ZM328.651 89.8636C330.212 89.8636 331.53 89.4394 332.605 88.5909C333.696 87.7273 334.53 86.5227 335.105 84.9773C335.696 83.4318 335.992 81.6212 335.992 79.5455C335.992 77.4697 335.704 75.6667 335.128 74.1364C334.552 72.6061 333.719 71.4242 332.628 70.5909C331.537 69.7576 330.212 69.3409 328.651 69.3409C327.06 69.3409 325.719 69.7727 324.628 70.6364C323.537 71.5 322.712 72.697 322.151 74.2273C321.59 75.7576 321.31 77.5303 321.31 79.5455C321.31 81.5758 321.59 83.3712 322.151 84.9318C322.727 86.4773 323.552 87.6894 324.628 88.5682C325.719 89.4318 327.06 89.8636 328.651 89.8636ZM353.407 97V62.0909H363.088V97H353.407ZM358.27 57.5909C356.831 57.5909 355.596 57.1136 354.566 56.1591C353.551 55.1894 353.043 54.0303 353.043 52.6818C353.043 51.3485 353.551 50.2045 354.566 49.25C355.596 48.2803 356.831 47.7955 358.27 47.7955C359.71 47.7955 360.937 48.2803 361.952 49.25C362.982 50.2045 363.498 51.3485 363.498 52.6818C363.498 54.0303 362.982 55.1894 361.952 56.1591C360.937 57.1136 359.71 57.5909 358.27 57.5909ZM380.799 97.6591C378.571 97.6591 376.587 97.2727 374.844 96.5C373.102 95.7121 371.723 94.553 370.708 93.0227C369.708 91.4773 369.208 89.553 369.208 87.25C369.208 85.3106 369.564 83.6818 370.276 82.3636C370.988 81.0455 371.958 79.9848 373.185 79.1818C374.412 78.3788 375.806 77.7727 377.367 77.3636C378.943 76.9545 380.594 76.6667 382.321 76.5C384.352 76.2879 385.988 76.0909 387.23 75.9091C388.473 75.7121 389.374 75.4242 389.935 75.0455C390.496 74.6667 390.776 74.1061 390.776 73.3636V73.2273C390.776 71.7879 390.321 70.6742 389.412 69.8864C388.518 69.0985 387.246 68.7045 385.594 68.7045C383.852 68.7045 382.465 69.0909 381.435 69.8636C380.405 70.6212 379.723 71.5758 379.39 72.7273L370.435 72C370.89 69.8788 371.783 68.0455 373.117 66.5C374.45 64.9394 376.17 63.7424 378.276 62.9091C380.397 62.0606 382.852 61.6364 385.64 61.6364C387.579 61.6364 389.435 61.8636 391.208 62.3182C392.996 62.7727 394.579 63.4773 395.958 64.4318C397.352 65.3864 398.45 66.6136 399.253 68.1136C400.056 69.5985 400.458 71.3788 400.458 73.4545V97H391.276V92.1591H391.003C390.443 93.25 389.693 94.2121 388.753 95.0455C387.814 95.8636 386.685 96.5076 385.367 96.9773C384.049 97.4318 382.526 97.6591 380.799 97.6591ZM383.571 90.9773C384.996 90.9773 386.253 90.697 387.344 90.1364C388.435 89.5606 389.291 88.7879 389.912 87.8182C390.534 86.8485 390.844 85.75 390.844 84.5227V80.8182C390.541 81.0152 390.124 81.197 389.594 81.3636C389.079 81.5152 388.496 81.6591 387.844 81.7955C387.193 81.9167 386.541 82.0303 385.89 82.1364C385.238 82.2273 384.647 82.3106 384.117 82.3864C382.98 82.553 381.988 82.8182 381.14 83.1818C380.291 83.5455 379.632 84.0379 379.162 84.6591C378.693 85.2652 378.458 86.0227 378.458 86.9318C378.458 88.25 378.935 89.2576 379.89 89.9545C380.859 90.6364 382.087 90.9773 383.571 90.9773Z" fill="#ED9200"/>
<path d="M401.295 20.8169L405.401 24.7539L399.157 39.0567L399.342 39.2336L414.261 33.2471L418.367 37.184L402.618 52.2831L399.388 49.1866L409.639 39.3589L409.508 39.2336L395.258 45.0801L393.059 42.9715L399.195 29.2733L399.065 29.1479L388.775 39.0124L385.545 35.916L401.295 20.8169ZM408.076 57.5158L404.507 54.0949L425.694 44.2083L429.985 48.3222L419.665 68.6262L416.097 65.2054L424.302 49.7746L424.179 49.6566L408.076 57.5158ZM414.043 51.367L422.472 59.4474L419.873 61.9393L411.444 53.859L414.043 51.367ZM421.561 70.4436L437.31 55.3445L440.64 58.5369L427.636 71.0039L434.388 77.477L431.643 80.109L421.561 70.4436Z" fill="#ED9200"/>
</svg>
